<svg width="49" height="48" viewBox="0 0 49 48" fill="none" xmlns="http://www.w3.org/2000/svg">
<path d="M2.82518 48C2.68616 47.9399 2.54839 47.8748 2.40812 47.8209C1.90529 47.6368 1.47032 47.3041 1.16096 46.867C0.851608 46.43 0.682486 45.9091 0.676019 45.3737C0.663495 41.6256 0.663495 37.8763 0.676019 34.1258C0.682617 33.429 0.963858 32.763 1.45866 32.2724C1.95345 31.7819 2.62185 31.5064 3.31863 31.5057C4.9117 31.4882 6.50601 31.4982 8.09908 31.5057C8.82613 31.5116 9.52221 31.8009 10.0391 32.3123C10.1095 32.3663 10.1906 32.4047 10.2769 32.425C10.3633 32.4453 10.453 32.447 10.5401 32.43C10.911 32.3177 11.2759 32.1865 11.6334 32.0368C11.4005 30.9747 11.1049 29.9665 10.9659 28.9383C10.2583 23.6982 11.6697 19.0918 15.2967 15.2369C17.3507 13.0526 19.5199 10.9787 21.649 8.86458C21.8819 8.63289 21.9257 8.44627 21.8143 8.13818C21.2119 6.46621 20.6408 4.78172 20.0446 3.10724C19.8167 2.46475 19.8743 1.87611 20.3101 1.34759C20.9075 0.622444 21.9232 0.549808 22.6972 1.16349C23.3234 1.66446 23.7167 1.65569 24.3116 1.13469C26.0399 -0.379481 28.3318 -0.376976 30.0552 1.13469C30.63 1.63565 31.0371 1.65317 31.6295 1.1785C32.297 0.644975 33.061 0.586109 33.706 1.01944C34.351 1.45278 34.614 2.21174 34.3322 3.0471C33.7552 4.7437 33.1653 6.43697 32.5625 8.12689C32.451 8.43624 32.4949 8.62787 32.7291 8.85456C34.3422 10.4451 35.939 12.052 37.5396 13.6551C37.6657 13.7702 37.7818 13.8959 37.8865 14.0308C38.0169 14.2095 38.0778 14.4296 38.0577 14.65C38.0377 14.8703 37.9381 15.0758 37.7776 15.2281C37.6175 15.3793 37.4097 15.47 37.19 15.4844C36.9703 15.4988 36.7524 15.436 36.574 15.307C36.4401 15.1992 36.3146 15.0816 36.1983 14.9551C34.5284 13.2852 32.8618 11.6153 31.1986 9.9454C31.1023 9.83635 30.9831 9.74994 30.8495 9.69235C30.7159 9.63476 30.5713 9.60742 30.4259 9.61227C28.2542 9.62605 26.0825 9.61226 23.9133 9.62979C23.6883 9.63249 23.4714 9.71455 23.3009 9.8615C21.0703 12.072 18.7822 14.2299 16.6518 16.5344C12.8144 20.6836 11.7774 25.538 13.3442 30.9584C13.3708 31.0482 13.4027 31.1365 13.4394 31.2227C13.4576 31.2513 13.48 31.277 13.5057 31.2991C14.2472 31.0849 14.9824 30.8244 15.7376 30.6604C18.3055 30.0812 20.9937 30.3838 23.3685 31.5195C25.5878 32.554 27.7962 33.6119 29.9938 34.6931C31.6595 35.5135 32.2744 36.9124 32.039 38.8261C32.4147 38.5756 32.7629 38.399 33.0409 38.1548C34.272 37.0965 35.4907 36.0257 36.708 34.9461C38.0439 33.7663 39.3731 32.5815 40.6957 31.3917C40.8674 31.2374 40.9967 31.0416 41.0714 30.8231C41.9439 28.048 41.9561 25.0739 41.1065 22.2917C41.0576 22.1276 41.0038 21.9648 40.9587 21.7983C40.8059 21.2384 41.0351 20.7713 41.5448 20.5959C41.6631 20.5512 41.7896 20.5322 41.9158 20.5402C42.042 20.5481 42.1651 20.5829 42.2768 20.6421C42.3886 20.7014 42.4864 20.7837 42.5638 20.8838C42.6413 20.9838 42.6965 21.0991 42.7259 21.2221C43.0029 22.1639 43.2324 23.1191 43.4134 24.0839C43.6795 25.6585 43.6871 27.266 43.436 28.8431C43.4301 28.9311 43.4301 29.0193 43.436 29.1073C44.2438 28.7479 45.0528 28.6064 45.8832 28.8168C47.2608 29.1574 48.1375 30.0304 48.5521 31.3792L48.6773 31.7775V32.9047C48.4381 33.7037 48.0761 34.4213 47.46 35.0162C44.4475 37.9243 41.4417 40.8404 38.4426 43.7643C36.5063 45.643 34.2382 46.9355 31.6094 47.5617C30.8091 47.752 29.9813 47.8547 29.1735 47.9975L2.82518 48ZM10.7668 46.1214H11.026C16.7871 46.1214 22.5545 46.1464 28.3193 46.1064C31.2727 46.1109 34.1273 45.0427 36.3523 43.1006C37.502 42.1162 38.5603 41.0266 39.6499 39.9695C41.8166 37.873 43.9733 35.7652 46.1387 33.6686C46.6309 33.1915 46.9076 32.6441 46.7486 31.9478C46.4405 30.6015 44.9176 30.1656 43.8443 31.1175C40.7934 33.8218 37.7458 36.5279 34.7016 39.2356C33.8407 40.0125 32.8327 40.6088 31.7372 40.989C30.2568 41.49 28.7514 41.8143 27.1972 41.3284C25.2922 40.7323 23.3923 40.1198 21.4912 39.5149C20.5406 39.2118 19.5862 38.9188 18.6394 38.6019C18.4255 38.5417 18.2413 38.4046 18.1222 38.2169C18.0032 38.0292 17.9577 37.8041 17.9944 37.5849C18.0155 37.3727 18.112 37.175 18.2664 37.0279C18.4209 36.8808 18.623 36.794 18.836 36.7834C19.0535 36.7907 19.2683 36.833 19.4723 36.9086C22.2827 37.7953 25.0893 38.6933 27.901 39.575C28.8679 39.8781 29.7621 39.4698 30.109 38.6044C30.456 37.739 30.0865 36.8134 29.1822 36.3776C26.9204 35.2855 24.6635 34.1834 22.3816 33.1351C20.5331 32.286 18.558 31.9491 16.5792 32.435C14.6204 32.9172 12.7205 33.6373 10.7718 34.2598L10.7668 46.1214ZM8.91945 39.7441C8.91945 37.964 8.91945 36.1839 8.91945 34.4038C8.91945 33.6599 8.64015 33.3743 7.91 33.3731C6.45719 33.3731 5.00481 33.3731 3.55284 33.3731C2.82519 33.3731 2.55091 33.6611 2.55091 34.4063C2.55091 37.9665 2.55091 41.5271 2.55091 45.0881C2.55091 45.8459 2.8327 46.1201 3.60794 46.1214H7.82359C8.65895 46.1214 8.92443 45.8596 8.92568 45.0381L8.91945 39.7441ZM22.0059 3.01205C22.5507 4.57382 23.0554 6.04539 23.589 7.50696C23.6315 7.62343 23.8657 7.73616 24.0123 7.73741C26.1213 7.75244 28.2291 7.74366 30.3382 7.75242C30.6087 7.75242 30.7565 7.68605 30.8492 7.40926C31.3088 6.03161 31.7923 4.66647 32.2644 3.29632C32.2872 3.20942 32.3043 3.12117 32.3158 3.03208C30.9707 3.64076 29.8109 3.46167 28.7389 2.47978C28.3207 2.07983 27.7648 1.85598 27.1861 1.85458C26.6075 1.85318 26.0505 2.07433 25.6304 2.47226C24.5658 3.45916 23.4036 3.64825 22.0059 3.01579V3.01205Z" fill="#0E6FC2"/>
<path d="M24.0973 25.6282C24.0835 24.843 24.4104 24.4334 24.9326 24.3833C25.4549 24.3332 25.8557 24.6889 25.9571 25.26C26.1212 26.1906 27.0379 26.6289 27.862 26.1693C28.1964 25.9827 28.4169 25.7084 28.4156 25.3088C28.4197 25.127 28.368 24.9483 28.2674 24.7967C28.1669 24.6451 28.0224 24.528 27.8533 24.461C27.5961 24.3545 27.3223 24.2935 27.0442 24.2806C25.5864 24.1917 24.3741 23.1998 24.1261 21.871C23.8781 20.5422 24.5982 19.3198 25.9684 18.6836C26.112 18.596 26.2171 18.4573 26.2627 18.2953C26.3954 17.8495 26.7236 17.5439 27.1582 17.5326C27.3796 17.5204 27.5978 17.5903 27.7709 17.7289C27.944 17.8676 28.0599 18.0653 28.0962 18.2841C28.1426 18.5421 28.2603 18.6397 28.472 18.7362C29.5603 19.2196 30.204 20.0425 30.2842 21.2498C30.3218 21.8284 29.9611 22.2517 29.4451 22.3031C29.3201 22.3183 29.1932 22.3072 29.0728 22.2703C28.9523 22.2335 28.841 22.1717 28.7459 22.089C28.6509 22.0064 28.5742 21.9047 28.521 21.7905C28.4678 21.6764 28.4391 21.5523 28.4369 21.4264C28.4281 20.6186 27.3874 20.0337 26.5169 20.5146C26.1813 20.7 25.9634 20.9692 25.9659 21.3738C25.9614 21.564 26.0166 21.7509 26.1237 21.9081C26.2309 22.0654 26.3846 22.1851 26.5633 22.2505C26.7928 22.3443 27.0369 22.3977 27.2847 22.4083C28.8013 22.4897 29.9999 23.4716 30.2579 24.8643C30.4946 26.143 29.7632 27.3691 28.4081 28.004C28.265 28.0939 28.1602 28.2336 28.1138 28.3961C27.966 28.8645 27.6128 29.1663 27.1682 29.1575C26.7236 29.1488 26.3942 28.8394 26.2502 28.3622C26.1844 28.1913 26.0571 28.051 25.8932 27.969C24.8212 27.4517 24.1925 26.6364 24.0973 25.6282Z" fill="#0E6FC2"/>
<path d="M39.0023 17.6827C39.0105 17.438 39.1155 17.2065 39.2942 17.0391C39.4729 16.8717 39.7107 16.782 39.9554 16.7898C40.1999 16.8016 40.4305 16.9068 40.5997 17.0837C40.7688 17.2606 40.8637 17.4956 40.8647 17.7403C40.8543 17.9929 40.7441 18.2311 40.5585 18.4027C40.3728 18.5743 40.1267 18.6654 39.874 18.6559C39.6297 18.6416 39.4009 18.5313 39.2376 18.349C39.0743 18.1667 38.9897 17.9272 39.0023 17.6827Z" fill="#0E6FC2"/>
</svg>
