<svg width="49" height="48" viewBox="0 0 49 48" fill="none" xmlns="http://www.w3.org/2000/svg">
<path d="M29.2285 48H19.4704C19.3833 47.9681 19.2939 47.9431 19.203 47.9252C16.5632 47.5842 14.4362 46.3477 12.7642 44.2869C12.6024 44.1147 12.3797 44.0125 12.1435 44.0023C9.89262 43.9815 7.6417 43.9925 5.39691 43.9864C5.10096 43.9947 4.80512 43.9663 4.51618 43.9017C3.37416 43.6024 2.74243 42.6898 2.7412 41.3576C2.7412 34.3092 2.74527 27.2609 2.75345 20.2125C2.75345 19.4973 2.70072 19.0116 1.90707 18.6877C0.989525 18.3136 0.582264 17.4132 0.333252 16.4797V15.4481C0.463946 14.9513 0.691361 14.4852 1.00246 14.0764C1.31357 13.6677 1.70225 13.3243 2.14626 13.0659C8.87572 8.9509 15.5933 4.81624 22.2991 0.66195C23.7097 -0.212659 25.0124 -0.228605 26.4108 0.66195C28.7722 2.1597 31.169 3.60594 33.5512 5.06566C33.6628 5.13436 33.7806 5.18832 33.9573 5.28645C33.9573 4.85222 33.9573 4.49403 33.9573 4.13707C33.9732 3.01959 34.5939 2.39154 35.704 2.3805C36.6571 2.37192 37.6115 2.3805 38.5646 2.3805C39.7581 2.38786 40.3702 3.00855 40.3739 4.22049C40.3739 5.23739 40.3739 6.25307 40.3739 7.26997C40.3739 7.9385 40.1924 8.72356 40.4782 9.24366C40.764 9.76377 41.5245 9.97966 42.0814 10.3219C43.6761 11.3032 45.2818 12.276 46.8654 13.2794C47.9485 13.9663 48.46 14.9967 48.3496 16.2663C48.2441 17.493 47.5952 18.4166 46.4508 18.9012C46.0374 19.0754 45.9601 19.2876 45.9601 19.6911C45.9699 26.9137 45.9699 34.1363 45.9601 41.3589C45.9601 43.0529 45.0082 43.9962 43.3118 43.9986C41.0768 43.9986 38.8406 44.006 36.6044 43.9925C36.4604 43.9856 36.3171 44.0158 36.1882 44.0802C36.0593 44.1447 35.9492 44.2412 35.8684 44.3605C34.573 45.9834 32.9354 47.107 30.9213 47.6516C30.3595 47.7878 29.7891 47.881 29.2285 48ZM29.5781 25.2454C29.6014 25.2957 29.605 25.3154 29.6161 25.3227C29.7841 25.4344 29.9522 25.546 30.1227 25.6552C32.7858 27.3627 35.0367 29.4701 36.4854 32.3257C37.7562 34.8318 38.2837 37.4777 37.7587 40.272C37.625 40.9798 37.3649 41.6631 37.1539 42.388H43.1646C44.1533 42.388 44.3532 42.193 44.3532 41.2215C44.3532 34.0153 44.3561 26.8082 44.3618 19.6004C44.3618 19.2213 44.2845 19.0017 43.8858 18.8963C43.6233 18.8263 43.3866 18.6423 43.1498 18.4964C37.0288 14.7346 30.9102 10.9667 24.7941 7.19269C24.4752 6.9952 24.2544 6.97435 23.9195 7.18043C17.7935 10.9659 11.6602 14.7411 5.51958 18.5062C5.26012 18.6797 4.98093 18.8218 4.6879 18.9294C4.3935 19.0263 4.3199 19.1747 4.32604 19.4716C4.3334 26.7726 4.33586 34.0733 4.3334 41.3736C4.3334 42.1329 4.58732 42.3868 5.34417 42.3868C7.28393 42.3868 9.22286 42.3868 11.161 42.3868C11.291 42.3868 11.421 42.3672 11.5965 42.3525C10.5624 40.0611 10.5317 37.7365 11.0825 35.3838C11.8651 32.0362 13.7652 29.4014 16.3866 27.2559C17.2526 26.5469 18.1873 25.9226 19.1098 25.2442C18.2241 24.6481 17.7887 23.8041 17.9874 22.732C18.1861 21.6599 18.9331 21.0539 20.0138 20.7804C19.8114 20.448 19.6556 20.1597 19.4692 19.8935C18.8576 19.0401 18.0901 18.3101 17.2072 17.742C16.3952 17.1998 16.3669 16.2957 17.1581 15.7339C19.1956 14.2877 21.3877 13.9504 23.7183 14.9341C24.2863 15.1795 24.7916 15.7008 25.362 15.7597C25.9324 15.8186 26.5445 15.4138 27.1542 15.2997C28.836 14.9857 30.3999 15.2236 31.6842 16.4626C32.435 17.1875 32.2056 18.1051 31.2426 18.5049C30.6249 18.76 30.0313 19.07 29.4689 19.4311C28.9894 19.7409 28.6442 20.2201 28.5023 20.773C29.6505 20.957 30.449 21.5532 30.6882 22.6915C30.9163 23.7661 30.4919 24.6248 29.5756 25.2454H29.5781ZM24.3145 46.3232V46.4004C25.6895 46.4004 27.0659 46.4139 28.441 46.4004C30.1425 46.388 31.7951 45.8298 33.1556 44.8078C34.516 43.7858 35.5125 42.3542 35.9984 40.7234C36.819 37.9254 36.2658 35.2636 34.8944 32.7747C33.0544 29.4419 30.1583 27.2731 26.7813 25.6772C26.608 25.6095 26.4225 25.579 26.2367 25.5877C24.9867 25.5803 23.7355 25.5754 22.4855 25.5877C22.2388 25.5896 21.9952 25.6431 21.7704 25.7447C19.7745 26.6545 17.9491 27.8991 16.3731 29.4247C13.7787 31.9602 12.2638 34.9778 12.3398 38.6762C12.4196 42.5131 15.4825 45.9318 19.2999 46.2949C20.9571 46.4593 22.6413 46.3232 24.312 46.3232H24.3145ZM1.92914 15.8823C1.91455 16.2487 2.02379 16.6092 2.23922 16.9059C2.45464 17.2025 2.76368 17.418 3.11654 17.5175C3.67957 17.6708 4.15184 17.4782 4.62042 17.19C10.8977 13.3235 17.1741 9.45547 23.4497 5.58577C24.0937 5.18588 24.5806 5.1638 25.2357 5.57228C29.7817 8.40586 34.3522 11.2014 38.9142 14.0092C40.6965 15.1059 42.4715 16.2111 44.2637 17.2967C45.2904 17.9186 46.5281 17.3838 46.7464 16.2491C46.8789 15.5597 46.5538 14.9513 45.7921 14.4827C39.0046 10.3072 32.2219 6.12958 25.4442 1.94994C24.6923 1.48627 24.0201 1.47768 23.2644 1.94994C18.8435 4.6903 14.4145 7.41798 9.97727 10.133C7.59673 11.5976 5.21456 13.0614 2.83075 14.5244C2.27998 14.8556 1.96103 15.3132 1.92668 15.8823H1.92914ZM30.0663 17.1556C29.754 17.0389 29.4359 16.9386 29.1132 16.8551C27.9442 16.6196 26.8451 16.9213 25.7938 17.3826C25.2516 17.6193 24.8616 17.5666 24.3844 17.2059C23.8557 16.7962 23.2669 16.4706 22.6389 16.2405C21.2454 15.7499 19.896 15.9461 18.6252 16.6944C18.6461 16.7521 18.6461 16.7717 18.6571 16.7803C19.9611 17.8131 21.0467 19.0152 21.6661 20.5915C21.7004 20.645 21.7468 20.6897 21.8015 20.7219C21.8563 20.754 21.9179 20.7728 21.9814 20.7767C23.4951 20.789 25.01 20.7927 26.52 20.7767C26.5985 20.7599 26.6717 20.7244 26.7335 20.6731C26.7952 20.6218 26.8436 20.5564 26.8745 20.4823C27.1562 19.4954 27.7713 18.6366 28.6151 18.0523C29.042 17.7469 29.5082 17.4954 30.0638 17.1556H30.0663ZM24.3218 23.9832C25.6037 23.9832 26.8856 23.9832 28.1674 23.9832C28.7967 23.9832 29.1487 23.6753 29.1365 23.1589C29.1242 22.6682 28.782 22.3873 28.1662 22.3873C25.618 22.3873 23.0698 22.3873 20.5216 22.3873C19.9083 22.3873 19.5649 22.6646 19.5514 23.1601C19.5391 23.6765 19.8911 23.9808 20.5216 23.9832C21.7912 23.9857 23.0571 23.9832 24.3218 23.9832ZM35.5519 3.99846C35.5519 4.62406 35.5703 5.22512 35.5445 5.83845C35.5251 5.9827 35.5521 6.1294 35.6215 6.2573C35.691 6.38521 35.7994 6.48769 35.9309 6.54992C36.7675 7.04058 37.582 7.55578 38.4076 8.05994C38.5111 8.11458 38.6175 8.16332 38.7265 8.20591V4.00337L35.5519 3.99846Z" fill="#0E6FC2"/>
<path d="M25.1524 32.9661C25.1524 33.9671 25.1425 34.9656 25.1671 35.9616C25.1671 36.072 25.3486 36.2168 25.4787 36.2781C25.9853 36.5234 26.5348 36.6768 27.0144 36.9601C28.5294 37.8531 28.7943 39.6821 27.6339 41.0081C27.0792 41.632 26.3409 42.0641 25.5253 42.2421C25.2799 42.301 25.1573 42.3746 25.0898 42.6359C25.053 42.8003 24.9585 42.9461 24.8235 43.0469C24.6885 43.1477 24.5219 43.1968 24.3538 43.1854C23.976 43.1854 23.7257 42.9843 23.5724 42.6236C23.4952 42.459 23.3564 42.3313 23.186 42.2679C22.3593 42.0226 21.6098 41.6705 21.0406 41.0008C20.6836 40.5788 20.6849 40.1102 21.0406 39.7962C21.3963 39.4821 21.8097 39.5619 22.2145 39.9041C22.5825 40.2169 23.0045 40.4647 23.4032 40.7419L23.5344 40.6315C23.5344 39.6208 23.5454 38.6088 23.5197 37.598C23.5197 37.4913 23.3259 37.3527 23.1934 37.2913C22.6868 37.0534 22.136 36.8939 21.6588 36.6081C20.1353 35.6954 19.8937 33.8309 21.0946 32.5184C21.6394 31.9285 22.3502 31.5175 23.1333 31.3396C23.3786 31.2795 23.5381 31.2169 23.6031 30.9237C23.684 30.5668 23.9846 30.3889 24.3391 30.3901C24.6936 30.3914 24.9953 30.5692 25.0751 30.9286C25.1389 31.2169 25.2971 31.2819 25.5449 31.342C26.3616 31.5172 27.0992 31.9534 27.6462 32.5846C27.9896 32.9894 27.9909 33.4433 27.6597 33.7561C27.3285 34.0689 26.8562 34.0517 26.4612 33.6531C26 33.182 25.7105 33.0262 25.1524 32.9661ZM25.1818 40.6401C26.1006 40.4524 26.7617 39.8244 26.747 39.1755C26.7348 38.599 26.0589 38.0641 25.1818 37.9488V40.6401ZM23.5197 32.9404C22.5948 33.1231 21.9311 33.7549 21.9459 34.4038C21.9594 34.9815 22.6426 35.5213 23.5197 35.6304V32.9404Z" fill="#0E6FC2"/>
</svg>
