<svg width="49" height="48" viewBox="0 0 49 48" fill="none" xmlns="http://www.w3.org/2000/svg">
<path d="M0 45.3762V2.62737C0.0212911 2.60482 0.053854 2.58603 0.0626209 2.56098C0.647501 0.753744 1.67074 0.00230132 3.55313 0.00230132C17.1961 0.00230132 30.8387 0.00230132 44.4809 0.00230132C44.7619 -0.00638737 45.0431 0.009538 45.3213 0.0498939C46.9908 0.346717 48.0103 1.62919 48.0103 3.42265C48.0103 16.1873 48.0103 28.952 48.0103 41.7166C48.0103 42.7636 48.0265 43.8107 48.0027 44.8564C47.9777 45.9611 47.5018 46.8603 46.57 47.4514C46.1842 47.7019 45.7196 47.8272 45.2913 48H2.71777C1.72836 47.7558 0.905499 47.2686 0.407036 46.3493C0.254536 46.0322 0.118673 45.7074 0 45.3762ZM1.59812 8.02028V44.497C1.59812 45.792 2.20178 46.4044 3.47675 46.4044H44.5486C45.801 46.4044 46.4159 45.7845 46.4159 44.5258C46.4159 32.5276 46.4159 20.529 46.4159 8.53002V8.01653L1.59812 8.02028ZM1.59812 6.35707H46.3721C46.3861 6.3163 46.3966 6.2744 46.4034 6.23183C46.4034 5.35764 46.4034 4.48303 46.4034 3.60801C46.4034 2.1577 45.8448 1.60413 44.3908 1.60413H3.607C3.43542 1.60413 3.26257 1.59662 3.09099 1.60413C2.28694 1.66425 1.62815 2.2817 1.60185 3.0845C1.5768 4.16158 1.60313 5.24367 1.60313 6.35707H1.59812Z" fill="#0E6FC2"/>
<path d="M34.4113 18.4168C34.4113 18.939 34.4113 19.4062 34.4113 19.8733C34.4202 20.1315 34.3716 20.3883 34.2689 20.6253C34.1662 20.8623 34.012 21.0735 33.8176 21.2435C33.6926 21.3693 33.6189 21.5372 33.6109 21.7144C33.5976 24.0105 33.5976 26.3066 33.6109 28.6027C33.6109 28.7442 33.6924 28.9596 33.8013 29.016C34.8383 29.5558 35.2579 30.4212 35.2078 31.5559C35.2078 31.6811 35.2203 31.8064 35.2329 31.998C35.4833 31.998 35.7338 31.9842 35.973 31.998C36.4927 32.0343 36.8147 32.3662 36.7984 32.8296C36.7821 33.293 36.4652 33.5635 35.9592 33.5911C35.819 33.5986 35.6774 33.5911 35.5372 33.5911H12.4789C12.3073 33.5911 12.1345 33.5911 11.9642 33.5811C11.7665 33.576 11.5783 33.4952 11.4384 33.3553C11.2986 33.2155 11.2178 33.0273 11.2127 32.8296C11.1993 32.6319 11.2628 32.4366 11.39 32.2846C11.5172 32.1327 11.6982 32.0358 11.8952 32.0143C12.1695 31.9729 12.4526 31.983 12.8058 31.9667C12.8058 31.7262 12.8058 31.4995 12.8058 31.2728C12.8058 30.2709 13.2654 29.5545 14.1208 29.0523C14.1968 29.0018 14.2609 28.9352 14.3085 28.8574C14.3561 28.7795 14.3861 28.6921 14.3963 28.6014C14.4139 26.3062 14.4139 24.0101 14.3963 21.7131C14.3799 21.5232 14.2959 21.3454 14.1596 21.2122C13.9811 21.0483 13.8389 20.8489 13.7423 20.6267C13.6456 20.4045 13.5966 20.1645 13.5985 19.9222C13.5985 19.4212 13.5985 18.929 13.5985 18.4092C12.9135 18.388 12.4025 18.1387 12.1282 17.5326C11.8039 16.8187 12.0894 16.071 12.8534 15.6414C15.233 14.3013 17.6126 12.9654 19.9922 11.6337C21.0405 11.0463 22.0937 10.4677 23.1357 9.86775C23.7005 9.54337 24.2479 9.52208 24.8202 9.8427C28.2619 11.7756 31.7044 13.7068 35.1477 15.6364C35.8115 16.0121 36.1171 16.5957 35.9743 17.2169C35.7989 18.0185 35.2491 18.3792 34.4113 18.4168ZM14.1421 16.7561H33.8051C33.7563 16.7108 33.7043 16.669 33.6498 16.6308C30.5221 14.8774 27.391 13.127 24.2566 11.3794C24.1126 11.2993 23.8358 11.3393 23.6768 11.4258C22.3217 12.1647 20.9791 12.9287 19.6327 13.6801L14.1421 16.7561ZM14.4289 31.9654H33.5483C33.7475 30.7255 33.4719 30.3936 32.2721 30.3936H15.6375C15.4658 30.3842 15.2936 30.3892 15.1227 30.4087C14.747 30.4725 14.4777 30.6717 14.4339 31.0662C14.4165 31.3656 14.4148 31.6658 14.4289 31.9654ZM15.2154 19.9522H32.7756V18.4355H15.2104L15.2154 19.9522ZM19.242 21.6267V28.7542H21.5752V21.6267H19.242ZM26.4459 21.6267V28.7718H28.7754V21.6255L26.4459 21.6267ZM24.7764 21.6392H23.2409V28.7693H24.7764V21.6392ZM16.0446 21.628V28.7542H17.5863V21.628H16.0446ZM31.9627 28.7668V21.628H30.4273V28.7668H31.9627Z" fill="#0E6FC2"/>
<path d="M19.5659 43.9934H6.72492C5.37105 43.9934 4.79617 43.4123 4.79492 42.0484C4.79492 40.6269 4.79492 39.2054 4.79492 37.7902C4.79492 36.663 5.44372 36.0093 6.56464 36.0093C15.2481 36.0093 23.9348 36.0093 32.6249 36.0093C33.7584 36.0093 34.4059 36.6493 34.4096 37.7727C34.4096 39.2555 34.4096 40.7392 34.4096 42.2238C34.4096 43.3622 33.7835 43.9972 32.6437 43.9985C28.2845 43.9985 23.9252 43.9968 19.5659 43.9934ZM6.41554 42.354H32.7828V37.6374H6.41554V42.354Z" fill="#0E6FC2"/>
<path d="M40.0032 43.9923C39.4722 43.9923 38.9412 44.0036 38.4101 43.9923C37.4859 43.9673 36.8458 43.3574 36.8221 42.4318C36.7945 41.3547 36.8133 40.2777 36.8221 39.2006C36.8256 38.9738 36.8751 38.75 36.9677 38.5429C37.0603 38.3358 37.1939 38.1497 37.3606 37.9958C37.4933 37.8427 37.5771 37.6534 37.601 37.4522C37.6599 37.0377 37.6136 36.6031 37.7063 36.1998C37.9718 35.0501 39.0902 34.2961 40.2787 34.4176C40.8426 34.48 41.3657 34.7411 41.7545 35.1542C42.1433 35.5673 42.3722 36.1054 42.4003 36.6719C42.4116 36.8433 42.4116 37.0153 42.4003 37.1867C42.3678 37.5624 42.4742 37.8304 42.7447 38.1323C43.0096 38.4515 43.1677 38.8457 43.1969 39.2594C43.2582 40.2864 43.2307 41.3184 43.2144 42.3492C43.1981 43.3336 42.5406 43.9773 41.5499 43.9911C41.0339 44.0011 40.5179 43.9936 40.0032 43.9923ZM41.58 42.3705V39.2219H38.4489V42.3705H41.58ZM40.8022 37.58C40.7609 37.0251 40.9963 36.4165 40.3764 36.1234C40.2447 36.0734 40.104 36.052 39.9634 36.0606C39.8228 36.0693 39.6857 36.1077 39.5611 36.1735C39.0313 36.5079 39.228 37.0677 39.2192 37.58H40.8022Z" fill="#0E6FC2"/>
<path d="M41.578 4.79415C40.8265 4.79415 40.0814 4.79415 39.3324 4.79415C38.7601 4.79415 38.432 4.50108 38.4244 4.0164C38.4169 3.53171 38.7588 3.20234 39.3512 3.19983C40.8641 3.19315 42.3771 3.19315 43.89 3.19983C44.4361 3.19983 44.8018 3.52796 44.8118 3.98634C44.8218 4.46477 44.4511 4.78915 43.87 4.79291C43.106 4.79917 42.342 4.79415 41.578 4.79415Z" fill="#0E6FC2"/>
<path d="M4.39831 4.79385C4.27306 4.79385 4.14782 4.79385 4.02258 4.79385C3.5404 4.7688 3.20477 4.44693 3.19976 4.01109C3.19475 3.57525 3.53039 3.23584 4.00381 3.20327C4.2541 3.1894 4.50496 3.1894 4.75526 3.20327C5.25622 3.22832 5.61191 3.57148 5.60315 4.01735C5.59438 4.46321 5.24495 4.78007 4.72645 4.79761C4.61749 4.79761 4.50727 4.79385 4.39831 4.79385Z" fill="#0E6FC2"/>
<path d="M12.3771 4.79284C11.5756 4.79284 11.2011 4.53483 11.2111 3.98627C11.2212 3.43771 11.5956 3.196 12.4059 3.19726C12.5462 3.19726 12.6878 3.18849 12.8268 3.19726C13.299 3.24485 13.617 3.59301 13.5957 4.03386C13.5745 4.47471 13.2639 4.75777 12.798 4.78532C12.659 4.7991 12.5174 4.79284 12.3771 4.79284Z" fill="#0E6FC2"/>
<path d="M8.43235 4.79029C8.2758 4.79029 8.11925 4.80031 7.9652 4.79029C7.76826 4.78619 7.58044 4.70656 7.44057 4.56786C7.3007 4.42916 7.21949 4.242 7.21375 4.0451C7.19785 3.84017 7.264 3.6373 7.39764 3.48112C7.53127 3.32494 7.72144 3.22823 7.92637 3.21224C8.23666 3.18218 8.54915 3.18218 8.85944 3.21224C8.9611 3.21782 9.06064 3.24349 9.15231 3.28778C9.24398 3.33207 9.32595 3.3941 9.3935 3.47026C9.46105 3.54643 9.51281 3.63522 9.54583 3.73153C9.57884 3.82783 9.59243 3.92972 9.58582 4.03131C9.57205 4.4659 9.2715 4.76274 8.80435 4.79279C8.6791 4.80156 8.55386 4.79279 8.42862 4.79279L8.43235 4.79029Z" fill="#0E6FC2"/>
<path d="M19.6055 40.7912C18.7952 40.7912 18.4145 40.5407 18.4045 40.0134C18.3945 39.4862 18.7977 39.1956 19.6268 39.1968C19.7827 39.1901 19.9388 39.1947 20.094 39.2106C20.2894 39.2352 20.4692 39.3299 20.6001 39.4771C20.7309 39.6243 20.8039 39.814 20.8054 40.0109C20.8003 40.2157 20.7168 40.4107 20.5721 40.5557C20.4273 40.7007 20.2324 40.7845 20.0276 40.7899C19.8873 40.7999 19.7508 40.7912 19.6055 40.7912Z" fill="#0E6FC2"/>
<path d="M9.98209 40.79C9.16802 40.79 8.80731 40.547 8.81106 39.9934C8.81482 39.4399 9.18682 39.1956 9.99713 39.1981C10.1837 39.1882 10.3708 39.1966 10.5557 39.2232C10.7495 39.2585 10.9224 39.3667 11.0389 39.5255C11.1554 39.6844 11.2066 39.8819 11.1819 40.0773C11.1693 40.2658 11.087 40.4428 10.9512 40.5741C10.8153 40.7053 10.6355 40.7814 10.4467 40.7875C10.2952 40.8 10.1386 40.79 9.98209 40.79Z" fill="#0E6FC2"/>
<path d="M14.8198 39.1841C15.0063 39.1854 15.1926 39.2 15.3771 39.2279C15.5628 39.2667 15.7283 39.3711 15.8433 39.522C15.9583 39.6729 16.0152 39.8601 16.0033 40.0495C15.9905 40.2462 15.9044 40.431 15.7621 40.5673C15.6197 40.7036 15.4314 40.7816 15.2343 40.7859C14.9701 40.8022 14.7045 40.7997 14.439 40.7859C13.9518 40.7671 13.6199 40.4528 13.6087 40.0144C13.5974 39.5761 13.9293 39.2367 14.4027 39.1966C14.5417 39.1841 14.6833 39.1966 14.8235 39.1966L14.8198 39.1841Z" fill="#0E6FC2"/>
<path d="M24.4165 40.7922C24.2762 40.7922 24.1347 40.7997 23.9957 40.7922C23.5361 40.7621 23.2267 40.4528 23.2167 40.0232C23.2071 39.8177 23.2794 39.6168 23.4177 39.4645C23.5559 39.3121 23.7489 39.2208 23.9543 39.2104C24.2498 39.1848 24.5469 39.1848 24.8423 39.2104C25.0474 39.2192 25.2411 39.3073 25.3825 39.4561C25.5238 39.605 25.6019 39.8029 25.6 40.0082C25.6 40.454 25.2769 40.7697 24.7897 40.796C24.6657 40.7985 24.5405 40.7922 24.4165 40.7922Z" fill="#0E6FC2"/>
<path d="M29.2226 40.79C29.0661 40.79 28.9095 40.8 28.7555 40.79C28.5668 40.7834 28.3872 40.7068 28.252 40.5751C28.1167 40.4433 28.0355 40.2658 28.0241 40.0773C27.9903 39.6578 28.237 39.2871 28.6503 39.2294C29.0056 39.1835 29.3652 39.1814 29.7211 39.2232C29.9174 39.2465 30.0968 39.3456 30.221 39.4993C30.3453 39.653 30.4045 39.8492 30.3861 40.046C30.3816 40.2433 30.3008 40.4312 30.1607 40.5701C30.0205 40.7091 29.832 40.7883 29.6347 40.7912C29.5032 40.8 29.3629 40.79 29.2226 40.79Z" fill="#0E6FC2"/>
</svg>
