<svg width="49" height="48" viewBox="0 0 49 48" fill="none" xmlns="http://www.w3.org/2000/svg">
<path d="M0.0056899 37.9742C0.116535 37.4584 0.194678 36.934 0.343892 36.4309C1.46939 32.6508 3.99471 30.3558 7.81744 29.4463C10.0514 28.9148 12.2825 28.3719 14.5633 27.822C14.5633 27.5377 14.5434 27.2635 14.5633 26.9878C14.5832 26.7121 14.4724 26.5743 14.2393 26.4421C11.832 25.0793 10.1693 23.0883 9.39625 20.4366C9.1135 19.4479 8.96111 18.4265 8.94293 17.3983C8.88466 14.414 8.9131 11.4297 8.92447 8.44546C8.92335 7.33665 9.14101 6.23849 9.56507 5.21398C9.98913 4.18946 10.6112 3.25874 11.3957 2.47509C12.1801 1.69144 13.1115 1.07027 14.1364 0.647243C15.1614 0.224216 16.2598 0.00762586 17.3686 0.00987023C19.0099 0.00987023 20.6612 -0.0469774 22.2898 0.112184C25.9349 0.468877 29.0684 3.64076 29.4919 7.26737C29.5489 7.74943 29.5788 8.23431 29.5814 8.71972C29.5899 11.5306 29.5899 14.342 29.5814 17.1539C29.5643 21.2618 27.7861 24.3697 24.2466 26.4776C24.1045 26.5643 24.0036 26.7974 23.9624 26.9807C23.9339 27.1975 23.931 27.4169 23.9539 27.6344C23.9587 27.6968 23.9667 27.759 23.978 27.8205C25.0055 28.0721 26.0457 28.3293 27.0874 28.5823C27.9671 28.7954 28.8523 28.9915 29.7277 29.2232C29.8496 29.2697 29.9839 29.272 30.1072 29.2296C30.2306 29.1873 30.3351 29.103 30.4027 28.9915C30.9712 28.2696 31.5652 27.5704 32.1777 26.8229C31.4046 26.4591 30.9285 25.9319 31.1488 25.0807C31.3947 24.1257 32.1521 23.9438 33.0659 24.0106C32.8826 23.4422 32.5827 22.9732 32.091 22.7615C31.1474 22.3579 30.839 21.0434 31.0564 20.2305C31.3478 19.1434 32.226 18.3305 33.3302 18.3106C35.4419 18.2708 37.5551 18.251 39.6669 18.3106C41.3239 18.3604 42.4564 20.114 41.8567 21.6473C41.6709 22.0525 41.38 22.4004 41.0141 22.6549C40.5479 23.0017 40.1613 23.3655 39.9297 24.0021C40.2523 24.0021 40.538 24.0021 40.825 24.0021C41.6777 24.0021 42.2859 24.5123 42.3584 25.2711C42.4309 26.03 41.9122 26.6539 41.0467 26.8116L40.8435 26.8557C41.4119 27.5449 41.9491 28.2071 42.4948 28.8651C44.0225 30.7039 45.5643 32.5329 46.7268 34.6389C47.3421 35.7531 47.8295 36.9127 48.0058 38.1831C48.0256 38.2713 48.0522 38.3577 48.0854 38.4418V40.1258C48.0527 40.2906 48.0129 40.454 47.9887 40.6203C47.7045 42.5942 46.9016 44.2881 45.3441 45.5813C44.1262 46.5917 42.7079 47.1942 41.1789 47.5197C40.1741 47.7328 39.1467 47.8437 38.1307 48H1.03313C0.580773 47.7852 0.216004 47.4215 0 46.9697L0.0056899 37.9742ZM2.89477 45.1521H27.1314C25.1746 42.9537 24.565 40.427 25.0979 37.6204C25.3963 36.0487 26.1751 34.6674 27.049 33.3443C27.4 32.8128 27.7695 32.2941 28.1617 31.7243L23.9539 30.711C23.9539 31.2795 23.9539 31.774 23.9539 32.2742C23.9539 33.269 23.3854 33.8374 22.3907 33.846C20.3064 33.846 18.2245 33.846 16.145 33.846C15.1389 33.846 14.5747 33.2775 14.569 32.2828C14.569 31.7769 14.569 31.2695 14.569 30.748C14.4847 30.7511 14.4008 30.7592 14.3175 30.7721C12.2356 31.2738 10.1508 31.7584 8.07605 32.2828C5.25093 32.9933 3.17616 35.1818 2.93883 38.0581C2.7413 40.3986 2.89477 42.7676 2.89477 45.1521ZM36.6513 45.1948C38.2912 45.1706 40.069 45.0726 41.7672 44.443C43.6146 43.7595 44.777 42.4919 45.1579 40.5364C45.4421 39.0429 45.2276 37.6147 44.4346 36.3428C43.5379 34.9018 42.5531 33.5106 41.5356 32.152C40.3291 30.5405 39.016 29.0071 37.8151 27.3899C37.4982 26.9636 37.2226 26.8215 36.7067 26.7888C35.8825 26.7277 35.4377 27.0248 34.9517 27.6983C33.7494 29.3695 32.3937 30.9342 31.1147 32.5499C29.9708 33.9966 28.841 35.4575 28.1518 37.1926C26.86 40.4526 28.3678 43.5875 31.7187 44.615C33.2762 45.0896 34.8877 45.1848 36.6513 45.1948ZM11.7453 12.7144C11.7453 14.1128 11.7254 15.4557 11.7538 16.7972C11.7477 17.5593 11.811 18.3203 11.9428 19.0709C12.6761 22.6151 15.9702 25.0949 19.6622 24.9315C23.2007 24.7752 26.293 21.9927 26.6668 18.4627C26.8444 16.7943 26.7463 15.0961 26.7719 13.4107C26.7719 13.1265 26.7719 12.8309 26.7719 12.5439C26.3214 12.6163 25.9192 12.7329 25.5227 12.7357C22.942 12.7556 20.3609 12.7594 17.7793 12.7471C17.0403 12.7471 16.5003 12.1971 16.4207 11.4567C16.4079 11.3402 16.3951 11.2223 16.3766 11.0446C14.9928 11.9719 13.4025 12.5453 11.7453 12.7144ZM19.2287 9.90065C19.2903 9.92054 19.3536 9.93482 19.4178 9.94329C21.3732 9.94329 23.33 9.95608 25.2854 9.94329C26.1537 9.93477 26.7605 9.27536 26.7705 8.39571C26.8018 5.75959 24.7468 3.24002 22.0908 2.94301C20.3301 2.74548 18.5282 2.80088 16.7518 2.88615C16.02 2.92168 15.2412 3.21868 14.596 3.59669C12.2455 4.95099 11.5009 7.14942 11.7893 9.85801C11.8489 9.86227 11.9088 9.86227 11.9684 9.85801C12.0622 9.84664 12.1531 9.82673 12.2455 9.80684C13.9966 9.44534 15.5434 8.42867 16.5699 6.96466C17.0474 6.3067 17.6115 6.09925 18.2752 6.31667C18.8962 6.52131 19.2259 7.02719 19.2344 7.81874C19.2344 8.50086 19.2287 9.18727 19.2287 9.90065ZM21.1131 27.6813H17.4183V31.001H21.1131V27.6813ZM37.0122 23.9865C37.1956 22.9218 37.6861 21.9339 38.4234 21.1443H34.5552C35.3011 21.9312 35.8005 22.9192 35.9919 23.9865H37.0122Z" fill="#0E6FC2"/>
<path d="M18.9685 22.1279C17.5264 22.0679 16.1666 21.4401 15.1856 20.3813C14.5788 19.7475 14.5532 18.8977 15.1159 18.3293C15.6787 17.7609 16.537 17.7807 17.1666 18.3875C18.4754 19.6409 20.0372 19.6352 21.3673 18.3719C21.9869 17.7836 22.8168 17.7608 23.3852 18.3136C23.9536 18.8664 23.9423 19.7347 23.3497 20.3671C22.2853 21.4955 20.8045 22.1321 18.9685 22.1279Z" fill="#0E6FC2"/>
</svg>
